<mxfile host="app.diagrams.net" modified="2021-06-15T07:10:35.467Z" agent="5.0 (Windows NT 10.0; WOW64) AppleWebKit/537.36 (KHTML, like Gecko) Chrome/91.0.4472.101 Safari/537.36" etag="31QgBOoIDoURmJlfRRX_" version="14.7.7" type="github">
  <diagram id="N7Pp5Ii5ekD6nR6l--mo" name="Page-1">
    <mxGraphModel dx="1422" dy="762" grid="1" gridSize="10" guides="1" tooltips="1" connect="1" arrows="1" fold="1" page="1" pageScale="1" pageWidth="827" pageHeight="1169" math="0" shadow="0">
      <root>
        <mxCell id="0" />
        <mxCell id="1" parent="0" />
        <mxCell id="wp5vlvIKGqaf5Xr8x6_I-1" value="" style="verticalLabelPosition=bottom;align=center;html=1;verticalAlign=top;pointerEvents=1;dashed=0;shape=mxgraph.pid2valves.valve;valveType=gate;actuator=powered" vertex="1" parent="1">
          <mxGeometry x="350" y="150" width="100" height="100" as="geometry" />
        </mxCell>
        <mxCell id="wp5vlvIKGqaf5Xr8x6_I-2" value="" style="part=1;strokeColor=none;fillColor=none;fontStyle=1;fontSize=14;" vertex="1" parent="wp5vlvIKGqaf5Xr8x6_I-1">
          <mxGeometry x="32.5" width="35" height="35" as="geometry" />
        </mxCell>
      </root>
    </mxGraphModel>
  </diagram>
</mxfile>
